<?xml version="1.0"?>
<svg xmlns="http://www.w3.org/2000/svg" id="Filled_Outline" data-name="Filled Outline" viewBox="0 0 64 64" width="512" height="512"><path d="M51,60,42.951,48.855a9.929,9.929,0,0,1,1.028-12.834h0a9.928,9.928,0,0,1,14.042,0h0a9.929,9.929,0,0,1,1.028,12.834Z" style="fill:#02998a"/><polygon points="29 7 36 7 39 10 39 17 29 17 29 7" style="fill:#02998a"/><circle cx="31" cy="19" r="2" style="fill:#784a42"/><circle cx="9" cy="19" r="2" style="fill:#784a42"/><rect x="3" y="3" width="28" height="14" style="fill:#fdb62f"/><rect x="46.071" y="37.887" width="10" height="10" rx="5" ry="5" style="fill:#fdb62f"/><path d="M2,2V18H6.184A2.966,2.966,0,0,0,6,19a3,3,0,0,0,6,0,2.966,2.966,0,0,0-.184-1H28.184A2.966,2.966,0,0,0,28,19a3,3,0,0,0,6,0,2.966,2.966,0,0,0-.184-1H40V9.586L36.414,6H32V2ZM4,4H30V16H4Zm6,15a1,1,0,1,1-1-1A1,1,0,0,1,10,19Zm21,1a1,1,0,1,1,1-1A1,1,0,0,1,31,20ZM35.586,8,38,10.414V16H32V8Z"/><path d="M51.071,48.888a6,6,0,1,0-6-6A6.007,6.007,0,0,0,51.071,48.888Zm0-10a4,4,0,1,1-4,4A4,4,0,0,1,51.071,38.888Z"/><path d="M42.141,49.44,51,61.708,59.859,49.44a10.929,10.929,0,1,0-17.718,0Zm2.546-12.712A8.928,8.928,0,0,1,58.238,48.269L51,58.292,43.762,48.269A8.89,8.89,0,0,1,44.687,36.728Z"/><rect x="47.856" y="24" width="3" height="2"/><rect x="48" y="12" width="3" height="2"/><rect x="17.569" y="48" width="3" height="2"/><rect x="23.569" y="48" width="3" height="2"/><path d="M29.235,38.006l.1-2C29.227,36,29.114,36,29,36H26.287v2H29C29.079,38,29.158,38,29.235,38.006Z"/><path d="M4,55a5.017,5.017,0,0,1,.609-2.4l-1.754-.959A7.015,7.015,0,0,0,2,55Z"/><polygon points="20.856 24 17.836 24.002 17.878 26.002 20.856 26 20.856 24"/><rect x="20.287" y="36" width="3" height="2"/><rect x="14.573" y="60" width="3" height="2"/><rect x="23.856" y="24" width="3" height="2"/><path d="M17.408,35.967a4.977,4.977,0,0,1-2.305-.892L13.94,36.7a7.018,7.018,0,0,0,3.234,1.249Z"/><path d="M36,42.838l-2,.041V43a4.939,4.939,0,0,1-.555,2.291l1.778.918A7,7,0,0,0,36,43.021Z"/><rect x="35.856" y="24" width="3" height="2"/><rect x="32.573" y="60" width="3" height="2"/><path d="M32.923,48.8,31.8,47.142a5,5,0,0,1-2.326.835l.187,1.992A7.018,7.018,0,0,0,32.923,48.8Z"/><rect x="26.573" y="60" width="3" height="2"/><path d="M31.6,38.729A5.07,5.07,0,0,1,33.332,40.5l1.73-1a7.038,7.038,0,0,0-2.416-2.476Z"/><rect x="20.573" y="60" width="3" height="2"/><path d="M61.805,17.352a7.021,7.021,0,0,0-1.624-3.06L58.7,15.638a5,5,0,0,1,1.161,2.184Z"/><rect x="42" y="12" width="3" height="2"/><path d="M60.066,23.831a7.017,7.017,0,0,0,1.7-3.019L59.831,20.3a5.015,5.015,0,0,1-1.212,2.155Z"/><rect x="44.573" y="60" width="3" height="2"/><path d="M53.856,26H55a7.015,7.015,0,0,0,2.13-.33l-.608-1.906A4.989,4.989,0,0,1,55,24H53.856Z"/><path d="M56.636,14.273l.654-1.89A6.988,6.988,0,0,0,55,12H54v2h1A5,5,0,0,1,56.636,14.273Z"/><path d="M11.573,62V60H9c-.12,0-.239,0-.357-.013l-.139,2c.163.011.329.017.5.017Z"/><path d="M11,31a6.938,6.938,0,0,0,.7,3.062l1.8-.875A4.959,4.959,0,0,1,13,31c0-.077,0-.155.006-.232l-2-.1C11,30.776,11,30.888,11,31Z"/><path d="M15.5,26.669l-1-1.731a7.024,7.024,0,0,0-2.476,2.42L13.729,28.4A5.033,5.033,0,0,1,15.5,26.669Z"/><rect x="11.569" y="48" width="3" height="2"/><path d="M8.5,48.019a6.981,6.981,0,0,0-3.287,1.094L6.3,50.8a4.991,4.991,0,0,1,2.344-.782Z"/><path d="M4.61,57.4l-1.754.961a7.06,7.06,0,0,0,2.36,2.533L6.3,59.21A5.077,5.077,0,0,1,4.61,57.4Z"/><rect x="38.573" y="60" width="3" height="2"/><rect x="29.856" y="24" width="3" height="2"/><rect x="41.856" y="24" width="3" height="2"/></svg>
