<svg id="Filled_expand" enable-background="new 0 0 512 512" height="512" viewBox="0 0 512 512" width="512" xmlns="http://www.w3.org/2000/svg"><path d="m328 504h-184c-8.837 0-16-7.163-16-16 0-8.837 7.163-16 16-16h224c8.837 0 16 7.163 16 16 0 8.837-7.163 16-16 16h-24z" fill="#ff593f"/><path d="m352 392c0 33.39-17.05 62.8-42.92 80h-106.16c-25.87-17.2-42.92-46.61-42.92-80 0-36.2 20.04-67.73 49.63-84.08l14.37-35.92v-48h64v48l14.37 35.92c29.59 16.35 49.63 47.88 49.63 84.08z" fill="#ffde66"/><path d="m240 168h32v56h-32z" fill="#ffd642"/><path d="m240 80v-16h32v56h-32v-24z" fill="#ffd642"/><path d="m267.69 168h-23.38c-17.563 0-33.838-9.215-42.875-24.275l-9.435-15.725v-8h128v8l-9.435 15.725c-9.036 15.06-25.311 24.275-42.875 24.275z" fill="#d191ff"/><path d="m259.17 64h-6.339c-17.217 0-32.503-11.017-37.947-27.351l-6.884-20.649v-8h96v8l-6.883 20.649c-5.445 16.334-20.73 27.351-37.947 27.351z" fill="#ff593f"/><path d="m224 224h64v32h-64z" fill="#ff593f"/><path d="m311.991 408c-16 0-16 24-32 24-16.001 0-16.001-24-32.001-24s-16 24-32 24-16-24-31.999-24c-9.708 0-13.525 8.838-18.601 15.788 6.971 19.869 20.292 36.751 37.531 48.212h106.16c14.814-9.85 26.736-23.703 34.22-40.016-15.311-.684-15.543-23.984-31.31-23.984z" fill="#d191ff"/><ellipse cx="256" cy="348" fill="#ff593f" rx="16" ry="28"/><path d="m435.192 96h-6.384c-6.506 0-11.279-6.114-9.701-12.425l4.893-19.575h16l4.894 19.575c1.578 6.311-3.196 12.425-9.702 12.425z" fill="#ff593f"/><path d="m432 152c-8.837 0-16-7.163-16-16 0-8.837 7.163-16 16-16 8.837 0 16 7.163 16 16 0 8.837-7.163 16-16 16z" fill="#ffde66"/><path d="m368 464h-36.939c18.403-19.164 28.939-44.82 28.939-72 0-36.89-19.557-70.97-51.238-89.643l-12.762-31.898v-38.459h8v-16h-24v-41.339c15.437-3.39 29.152-13.032 37.426-26.82l9.435-15.725c.746-1.243 1.14-2.666 1.14-4.116h24v-16h-72v-44.741c11.436-5.503 20.5-15.461 24.707-28.081l6.883-20.649c.271-.816.41-1.67.41-2.53h16v-15.999h-144.001v16h16c0 .86.139 1.714.41 2.53l6.883 20.649c4.207 12.619 13.271 22.577 24.707 28.08v12.741h16v-8h16v40h-16v-16h-16v16h-72v16h24c0 1.45.394 2.873 1.14 4.116l9.435 15.725c8.273 13.789 21.989 23.431 37.426 26.82v41.339h-24v16h8v38.459l-12.762 31.898c-27.039 15.936-45.245 43.094-50.001 73.643h-25.238c-30.879 0-56-25.122-56-56s25.121-56 56-56h72v-16h-72c-39.701 0-72 32.299-72 72s32.299 72 72 72h24c0 11.818 1.992 23.347 5.756 34.18.027.085.055.171.085.256.466 1.329.96 2.647 1.48 3.954.035.088.07.175.105.262.03.074.059.148.089.222 4.935 12.258 12.189 23.509 21.424 33.126h-36.939c-13.233 0-24 10.767-24 24s10.767 24 24 24h184v-16h-184c-4.411 0-8-3.589-8-8s3.589-8 8-8h224c4.411 0 8 3.589 8 8s-3.589 8-8 8h-24v16h24c13.233 0 24-10.767 24-24s-10.767-24-24-24zm-115.17-408c-13.796 0-25.995-8.793-30.357-21.881l-6.04-18.119h79.135l-6.04 18.119c-4.363 13.088-16.562 21.881-30.358 21.881zm33.232 232.696-30.062 21.473-30.062-21.473 5.49-13.724c.378-.945.572-1.954.572-2.972v-8h48v8c0 1.018.194 2.026.572 2.972zm-30.062 39.304c2.321 0 8 7.008 8 20s-5.679 20-8 20-8-7.008-8-20 5.679-20 8-20zm-47.705-188.391-6.966-11.609h109.342l-6.966 11.609c-7.546 12.578-21.347 20.391-36.015 20.391h-23.38c-14.668 0-28.469-7.813-36.015-20.391zm39.705 36.391h16v40h-16zm32 56v16h-48v-16zm-66.501 82.922c1.615-.893 2.873-2.316 3.559-4.03l2.762-6.904 21.376 15.269c-5.667 6.464-9.196 16.74-9.196 28.743 0 20.523 10.317 36 24 36s24-15.477 24-36c0-12.003-3.529-22.279-9.196-28.743l21.376-15.269 2.762 6.904c.686 1.714 1.943 3.138 3.559 4.03 28.064 15.508 45.499 45.042 45.499 77.078 0 10.178-1.747 20.103-5.043 29.412-1.249-1.359-2.597-3.284-4.308-5.85-4.378-6.568-10.377-15.562-22.659-15.562-12.281 0-18.278 8.995-22.656 15.562-3.997 5.996-5.962 8.438-9.344 8.438s-5.347-2.442-9.344-8.438c-4.378-6.567-10.375-15.562-22.657-15.562-12.281 0-18.278 8.995-22.656 15.562-3.997 5.996-5.962 8.438-9.344 8.438s-5.346-2.442-9.343-8.437c-4.377-6.568-10.375-15.563-22.656-15.563-6.494 0-11.23 2.515-14.899 5.856-.721-4.541-1.091-9.172-1.091-13.856 0-32.036 17.435-61.57 45.499-77.078zm-8.104 149.078c-13.189-9.298-23.68-22.179-30.108-36.892-.025-.058-.05-.116-.075-.174-.047-.107-.093-.215-.139-.322-.246-.574-.485-1.152-.719-1.731.099-.148.197-.296.294-.442 3.997-5.996 5.961-8.438 9.342-8.438 3.382 0 5.347 2.442 9.344 8.438 4.378 6.567 10.374 15.562 22.655 15.562s18.278-8.995 22.656-15.562c3.997-5.996 5.962-8.438 9.344-8.438 3.383 0 5.348 2.442 9.345 8.438 4.379 6.566 10.375 15.561 22.656 15.561s18.278-8.995 22.656-15.562c3.997-5.996 5.962-8.438 9.344-8.438 3.384 0 5.349 2.442 9.347 8.438 2.617 3.924 5.832 8.746 10.652 11.973-5.862 10.015-13.653 18.785-22.95 25.813-.02.015-.04.03-.06.045-.133.1-.266.2-.399.299-.037.028-.075.056-.112.083-.123.091-.245.182-.368.272-.054.04-.108.079-.162.119-.106.078-.212.155-.318.232-.088.063-.176.126-.263.19-.08.057-.159.115-.238.171-.17.121-.34.242-.511.363h-101.213z"/><path d="m200 360h16v16h-16z"/><path d="m296 360h16v16h-16z"/><path d="m440 158.629c9.312-3.302 16-12.199 16-22.629s-6.688-19.327-16-22.629v-10.016c3.679-1.011 6.96-3.179 9.38-6.278 3.436-4.399 4.629-10.028 3.274-15.443l-4.894-19.575c-.89-3.561-4.09-6.06-7.761-6.06v-39.999h-16v40c-3.671 0-6.871 2.499-7.761 6.06l-4.894 19.575c-1.354 5.415-.161 11.043 3.274 15.443 2.419 3.099 5.7 5.267 9.38 6.278v10.016c-9.312 3.302-16 12.199-16 22.629s6.688 19.327 16 22.629v1.37h-16v16h15.393c-4.948 40.516-39.563 72-81.393 72h-30v16h30c50.662 0 92.469-38.642 97.494-88h16.508v-16h-16zm-13.133-73.114 3.379-13.515h3.508l3.379 13.515c.195.783-.09 1.365-.364 1.716-.273.351-.77.769-1.576.769h-6.385c-.807 0-1.303-.418-1.576-.769-.275-.351-.56-.933-.365-1.716zm5.133 42.485c4.411 0 8 3.589 8 8s-3.589 8-8 8-8-3.589-8-8 3.589-8 8-8z"/></svg>